<?xml version="1.0" encoding="utf-8"?>
<!-- Generator: Adobe Illustrator 22.0.1, SVG Export Plug-In . SVG Version: 6.00 Build 0)  -->
<!DOCTYPE svg PUBLIC "-//W3C//DTD SVG 1.1//EN" "http://www.w3.org/Graphics/SVG/1.1/DTD/svg11.dtd">
<svg version="1.1" id="Capa_1" xmlns="http://www.w3.org/2000/svg" xmlns:xlink="http://www.w3.org/1999/xlink" x="0px" y="0px"
	 viewBox="0 0 50 50" enable-background="new 0 0 50 50" xml:space="preserve">
<g>
	<path d="M0.4,3h49.1C49.8,3,50,3.2,50,3.4v1.1C50,4.8,49.8,5,49.6,5H0.4C0.2,5,0,4.8,0,4.6V3.4C0,3.2,0.2,3,0.4,3z"/>
	<path d="M0.4,17h49.1c0.2,0,0.4,0.2,0.4,0.4v1.1c0,0.2-0.2,0.4-0.4,0.4H0.4C0.2,19,0,18.8,0,18.6v-1.1C0,17.2,0.2,17,0.4,17z"/>
	<rect y="31" width="50" height="2"/>
	<path d="M0.4,45h49.1c0.2,0,0.4,0.2,0.4,0.4v1.1c0,0.2-0.2,0.4-0.4,0.4H0.4C0.2,47,0,46.8,0,46.6v-1.1C0,45.2,0.2,45,0.4,45z"/>
</g>
</svg>
