<?xml version="1.0" encoding="utf-8"?>
<!-- Generator: Adobe Illustrator 22.0.1, SVG Export Plug-In . SVG Version: 6.00 Build 0)  -->
<!DOCTYPE svg PUBLIC "-//W3C//DTD SVG 1.1//EN" "http://www.w3.org/Graphics/SVG/1.1/DTD/svg11.dtd">
<svg version="1.1" id="Layer_1" xmlns="http://www.w3.org/2000/svg" xmlns:xlink="http://www.w3.org/1999/xlink" x="0px" y="0px"
	 viewBox="0 0 601.8 593.9" enable-background="new 0 0 601.8 593.9" xml:space="preserve">
<path fill="none" stroke="#000000" stroke-width="31" stroke-miterlimit="10" d="M366.9,20.8c-113.7,0-206.2,92.5-206.2,206.2
	c0,113.7,92.5,206.2,206.2,206.2c113.7,0,206.2-92.5,206.2-206.2C573.1,113.3,480.6,20.8,366.9,20.8z"/>
<path d="M177.6,368L24.2,520.2c-6.7,6.7-10.4,15.6-10.4,25.1c0,9.5,3.7,18.4,10.4,25.1c6.7,6.7,15.6,10.4,25.1,10.4
	s18.4-3.7,25.1-10.4l153.1-153C208.5,403.6,191.7,386.9,177.6,368z"/>
</svg>
