<svg width="454" height="151" xmlns="http://www.w3.org/2000/svg">
 <!-- Created with Method Draw - http://github.com/duopixel/Method-Draw/ -->

 <g>
  <title>background</title>
  <rect fill="none" id="canvas_background" height="153" width="456" y="-1" x="-1"/>
 </g>
 <g>
  <title>Layer 1</title>
  <g stroke="null" id="svg_8">
   <g stroke="null" id="svg_4" fill="#2566af">
    <path stroke="null" fill="#ffffff" id="svg_5" d="m196.138117,147.588773l-36.713957,0l22.945752,-141.016602l36.71773,0l-22.949524,141.016602zm-67.600003,-141.016602l-35.001419,96.992293l-4.141778,-20.886179l0.003772,0.007544l-12.353664,-63.416732s-1.493756,-12.696926 -17.415837,-12.696926l-57.864184,0l-0.67898,2.387746s17.694973,3.68158 38.403863,16.118231l31.896972,122.514397l38.252979,0l58.411141,-141.020374l-39.512864,0zm288.773966,141.016602l33.711357,0l-29.39229,-141.020374l-29.512997,0c-13.628637,0 -16.948095,10.509102 -16.948095,10.509102l-54.755965,130.511272l38.271839,0l7.653613,-20.946533l46.672331,0l4.300207,20.946533zm-40.39931,-49.882397l19.290576,-52.771834l10.852364,52.771834l-30.14294,0zm-53.628104,-57.222926l5.239462,-30.282508s-16.167268,-6.148541 -33.021061,-6.148541c-18.219297,0 -61.485411,7.962927 -61.485411,46.683647c0,36.431049 50.78016,36.883702 50.78016,56.019622s-45.548242,15.707071 -60.580105,3.640087l-5.458245,31.663101s16.393595,7.962927 41.440413,7.962927c25.054362,0 62.850915,-12.97229 62.850915,-48.27925c0,-36.66492 -51.236585,-40.078681 -51.236585,-56.019622c0.003772,-15.944714 35.759613,-13.896457 51.470456,-5.239462z"/>
   </g>
   <path stroke="null" id="svg_6" fill="#e6a540" d="m79.795477,73.433861l-10.932951,-56.123596s-1.321969,-11.236737 -15.412958,-11.236737l-51.20961,0l-0.600895,2.113148s24.613328,5.100931 48.221826,24.212732c22.573623,18.267209 29.934588,41.034454 29.934588,41.034454z"/>
  </g>
 </g>
</svg>