<svg width="125" height="46" xmlns="http://www.w3.org/2000/svg">
 <!-- Created with Method Draw - http://github.com/duopixel/Method-Draw/ -->

 <g>
  <title>background</title>
  <rect fill="none" id="canvas_background" height="48" width="127" y="-1" x="-1"/>
  <g display="none" overflow="visible" y="0" x="0" height="100%" width="100%" id="canvasGrid">
   <rect fill="url(#gridpattern)" stroke-width="0" y="0" x="0" height="100%" width="100%"/>
  </g>
 </g>
 <g>
  <title>Layer 1</title>
  <!-- Created with Method Draw - http://github.com/duopixel/Method-Draw/ -->
  <g stroke="null" id="svg_16">
   <g stroke="null" transform="matrix(0.2681090043797319,0,0,0.2681090043797319,0.015665856970839,-2.9027078708036242) " id="svg_14">
    <title stroke="null" transform="translate(-47.130332946777344,-669.250732421875) translate(-3087.222900390625,-1557.0927734375) translate(3135.26708984375,0) translate(0,2243.304931640625) ">background</title>
    <rect stroke="null" x="-0.086143" y="15.961426" width="456" height="153" id="svg_12" fill="none"/>
   </g>
   <g stroke="null" transform="matrix(0.2681090043797319,0,0,0.2681090043797319,0.015665856970839,-2.9027078708036242) " id="svg_15">
    <title stroke="null" transform="translate(-47.130332946777344,-669.250732421875) translate(-3087.222900390625,-1557.0927734375) translate(3135.26708984375,0) translate(0,2243.304931640625) ">Layer 1</title>
    <g stroke="null" id="svg_8">
     <g stroke="null" fill="#2566af" id="svg_10">
      <path stroke="null" d="m200.811373,165.708469l-36.71396,0l22.94575,-146.514571l36.71773,0l-22.94952,146.514571zm-67.60001,-146.514571l-35.00141,100.773836l-4.14178,-21.700482l0.00377,0.007834l-12.35366,-65.889229s-1.49376,-13.191959 -17.41584,-13.191959l-57.86419,0l-0.67898,2.480844s17.69498,3.825118 38.40387,16.746649l31.89697,127.291005l38.25298,0l58.41114,-146.518499l-39.51286,0l-0.00001,0zm288.77397,146.514571l33.71136,0l-29.39229,-146.518488l-29.513,0c-13.62864,0 -16.9481,10.91883 -16.9481,10.91883l-54.75596,135.599658l38.27184,0l7.65361,-21.763196l46.67233,0l4.30021,21.763196zm-40.39931,-51.82721l19.29058,-54.829314l10.85236,54.829314l-30.14294,0zm-53.6281,-59.453944l5.23946,-31.463168s-16.16727,-6.38826 -33.02106,-6.38826c-18.2193,0 -61.48541,8.27339 -61.48541,48.503757c0,37.851428 50.78016,38.321726 50.78016,58.203719s-45.54825,16.319459 -60.58011,3.78201l-5.45824,32.897585s16.39359,8.27339 41.44041,8.27339c25.05436,0 62.85091,-13.478055 62.85091,-50.161567c0,-38.094416 -51.23658,-41.641283 -51.23658,-58.20373c0.00377,-16.566364 35.75961,-14.438246 51.47046,-5.443737z" id="svg_11" fill="#ffffff"/>
     </g>
    </g>
   </g>
  </g>
 </g>
</svg>